<?xml version="1.0" encoding="utf-8"?>
<!-- Generator: Adobe Illustrator 28.2.0, SVG Export Plug-In . SVG Version: 6.00 Build 0)  -->
<svg version="1.1" id="Layer_1" xmlns="http://www.w3.org/2000/svg" xmlns:xlink="http://www.w3.org/1999/xlink" x="0px" y="0px"
	 viewBox="0 0 837 729" style="enable-background:new 0 0 837 729;" xml:space="preserve">
<style type="text/css">
	.st0{fill:#302E2C;}
	.st1{fill:none;stroke:#080E17;stroke-miterlimit:10;}
	.st2{fill:#181716;}
	.st3{fill:none;stroke:#080E17;stroke-linecap:round;stroke-linejoin:round;stroke-miterlimit:10;}
	.st4{fill:#C2BAB0;stroke:#080E17;stroke-miterlimit:10;}
	.st5{fill:none;stroke:#FFFCFF;stroke-width:0.75;stroke-linecap:round;stroke-linejoin:round;stroke-miterlimit:10;}
	.st6{fill:none;stroke:#FFFCFF;stroke-linecap:round;stroke-linejoin:round;stroke-miterlimit:10;}
	.st7{fill:#FFFCFF;stroke:#080E17;stroke-linecap:round;stroke-linejoin:round;stroke-miterlimit:10;}
	.st8{fill:#080E17;}
	.st9{fill:#C2BAB0;}
	.st10{fill:#FFFCFF;}
</style>
<g>
	<path class="st0" d="M724.85,353.1c30.32,6.57,58.46,22.81,79.32,45.77c3.76,4.14,7.31,8.52,9.97,13.43
		c6.87,12.68,7.3,27.74,7.57,42.16c0.31,16.6,0.35,34.21-8.28,48.39c-7.85,12.89-19.23,22.2-33.24,27.81
		c-0.19,23.98-3.42,47.94-9.61,71.12c-3.55,13.29-9.04,27.54-21.18,34.04c-9.11,4.87-20.03,4.29-30.17,6.21
		c-9.66,1.82-18.85,6.03-26.54,12.15c-8.6,6.84-15.67,16.22-26.06,19.81c-6.25,2.17-13.03,1.97-19.64,1.75
		c-9.28-0.31-18.57-0.62-27.85-0.93c-5.14-0.17-10.36-0.33-15.34,0.92c-12.05,3.04-20.7,13.74-32.25,18.34
		c-7.17,2.86-15.11,3.2-22.81,2.67c-17.44-1.2-35.61-5.72-50.42-15.01c-12.77,14.22-31.85,22.55-50.96,22.26
		c-19.11-0.29-39.4-8.31-51.74-22.91c-14.65,5.06-31.37,3.77-45.08-3.46c-1.77-0.93-3.59-1.99-5.59-2.01
		c-2.82-0.02-5.18,1.98-7.4,3.71c-14.28,11.09-34.25,14.39-51.33,8.48c-11.84-4.09-22.2-12.22-34.47-14.76
		c-10.82-2.24-22.03,0.1-32.74,2.88c-10.7,2.78-21.51,6.02-32.56,5.57c-11.05-0.45-22.64-5.4-27.78-15.18
		c-3.55-6.75-3.7-15.07-8.12-21.29c-6.5-9.15-19.31-10.35-30.46-11.6c-13.98-1.58-29.08-5.32-37.48-16.6
		c-6.6-8.86-7.67-20.56-8.22-31.6c-0.89-17.94-2.77-34.89-2.14-52.85c-8.06-3.96-15.86-8.45-23.34-13.42
		c-12.93-8.6-25.68-19.92-28.62-35.17c-2.45-12.75,2.51-25.8,9.06-37.02c6.55-11.21,14.8-21.49,19.95-33.42
		c3.75-8.7,5.88-18.32,11.76-25.75c5.62-7.1,14.03-11.36,22.35-14.95c12.1-5.22,24.6-9.5,37.36-12.77L724.85,353.1z"/>
	<path class="st1" d="M813.43,502.85c-7.85,12.89-19.23,22.2-33.24,27.81c-0.19,23.98-3.42,47.94-9.61,71.12
		c-3.55,13.29-9.04,27.54-21.18,34.04"/>
	<path class="st1" d="M120.77,359.86l604.08-6.76c30.32,6.57,58.46,22.81,79.32,45.77"/>
	<path class="st1" d="M74.39,585.21c-0.89-17.94-2.77-34.89-2.14-52.85c-8.06-3.96-15.86-8.45-23.34-13.42
		c-12.93-8.6-25.68-19.92-28.62-35.17c-2.45-12.75,2.51-25.8,9.06-37.02c6.55-11.21,14.8-21.49,19.95-33.42
		c3.75-8.7,5.88-18.32,11.76-25.75"/>
	<path class="st1" d="M286.21,687.81c-11.84-4.09-22.2-12.22-34.47-14.76c-10.82-2.24-22.03,0.1-32.74,2.88
		c-10.7,2.78-21.51,6.02-32.56,5.57c-11.05-0.45-22.64-5.4-27.78-15.18c-3.55-6.75-3.7-15.07-8.12-21.29
		c-6.5-9.15-19.31-10.35-30.46-11.6"/>
	<path class="st1" d="M548.74,696.74c-17.44-1.2-35.61-5.72-50.42-15.01c-12.77,14.22-31.85,22.55-50.96,22.26"/>
	<path class="st1" d="M692.69,654.18c-8.6,6.84-15.67,16.22-26.06,19.81c-6.25,2.17-13.03,1.97-19.64,1.75
		c-9.28-0.31-18.57-0.62-27.85-0.93c-5.14-0.17-10.36-0.33-15.34,0.92"/>
	
		<ellipse transform="matrix(0.7071 -0.7071 0.7071 0.7071 -106.0054 394.6814)" class="st2" cx="423.42" cy="325.3" rx="307.3" ry="307.3"/>
	<path class="st3" d="M421.6,616.65c6.72-1.44,13.9-0.68,20.17,2.15"/>
	<g>
		<path class="st3" d="M719,438.58c7.15-8.76,17.06-15.24,27.96-18.26"/>
		<path class="st0" d="M731.28,439.43c-21.45-0.93-43.13,7.48-58.34,22.63c-4.28,4.26-8.11,9.12-10.21,14.78
			c-2.1,5.66-2.57,14.63,0.2,19.99c-13.18-4.39-24.4-12.26-35.85-20.12c-4.56-3.13-7.86-7.72-11.47-11.9
			c-14.51-16.78-35.49-27.81-57.53-30.27c-22.05-2.46-45.61,4.1-63.45,17.27c-19.65-8.03-43.86-3.28-59.04,11.56
			c-2.08,2.04-4.04,4.3-5.09,7.02c-2.3,5.94,0.14,12.58,2.8,18.37c4.99,10.87,10.92,22.05,17.54,32.01
			c-10.57-7.58-25.51-9.09-38.07-5.74c-2.32-9.83-9.19-18.48-18.25-22.96c-9.05-4.47-20.2-2.8-29.41,1.33
			c2.56-9.29-2.36-19.29-9.56-25.7c-9.21-8.21-22.27-11.92-34.43-9.76c-18.12,3.21-32.5,19.12-44.55,33.02
			c-2.69-11.13-11.07-23.29-22.29-25.57c-19.08-3.87-38.27,5.3-54.75,15.65c-16.26,10.21-33.73,22.68-47.96,35.57l-67.69,56.12
			c0,0,93.36,88.34,227.03,90.22c0,0,85.66,17.85,137.85,13.15c0,0,184.16,35.77,288.19-81.68
			C736.94,594.44,762.49,483.61,731.28,439.43z"/>
		<path class="st3" d="M189.15,487.79c-13.09,8.75-26.35,18.67-37.59,28.85c2.43-10.16-1-20.87-6.02-30.04
			c-12.66-23.11-36.05-40.05-61.95-44.88c-5.46-1.02-11.8-1.31-17.24-0.22c-5.45,1.1-10.76,3.61-14.33,7.86"/>
		<path class="st3" d="M433.29,488.78c4.99,10.87,10.92,22.05,17.54,32.01c-10.57-7.58-25.51-9.09-38.07-5.74
			c-2.32-9.83-9.19-18.48-18.25-22.96c-9.05-4.47-20.2-2.8-29.41,1.33c2.56-9.29-2.36-19.29-9.56-25.7
			c-9.21-8.21-22.27-11.92-34.43-9.76c-18.12,3.21-32.5,19.12-44.55,33.02c-2.69-11.13-11.07-23.29-22.29-25.57"/>
		<path class="st3" d="M558.07,434.56c-22.05-2.46-45.61,4.1-63.45,17.27"/>
		<path class="st3" d="M731.28,439.43c-21.45-0.93-43.13,7.48-58.34,22.63c-4.28,4.26-8.11,9.12-10.21,14.78
			c-2.1,5.66-2.57,14.63,0.2,19.99c-13.18-4.39-24.4-12.26-35.85-20.12"/>
		<path class="st3" d="M395.62,681.09c-4.77-9.59-8.8-19.19-8.87-29.9c-0.07-10.71,3.57-21.73,11.32-29.13"/>
		<g>
			<path class="st4" d="M224.46,488.43c-4.95,4.68-10.07,10.5-9.49,17.29c0.31,3.63,2.29,6.95,4.83,9.56
				c5.43,5.57,13.7,8.23,21.36,6.87c9.07-1.61,16.37-8.22,22.54-15.05c14.57-16.12,25.89-35.13,33.19-55.59
				c1.36-3.82,4.01-7.82-0.87-9.16c-3.89-1.07-9.72,3.03-12.9,4.65c-10.08,5.16-19.82,10.99-29.13,17.45
				C243.57,471.68,233.68,479.71,224.46,488.43z"/>
			<path class="st4" d="M312.98,472.34c-4.3,5.77-8.36,11.91-10.3,18.84c-1.94,6.93-1.48,14.85,2.71,20.71
				c4.83,6.75,13.98,9.58,22.15,8.15c8.17-1.43,15.34-6.59,20.63-12.99c5.29-6.4,8.89-13.99,12.14-21.63
				c3.97-9.35,7.48-18.92,10.11-28.73c2.47-9.21,6.35-21.91,4.84-31.51c-1.67-10.65-13.56,0.35-18.19,3.7
				c-7.92,5.74-15.43,12.04-22.45,18.84C326.77,455.33,319.52,463.57,312.98,472.34z"/>
			<path class="st4" d="M365.48,509.99c-3.69,5.29-7.18,10.84-8.96,17.03c-1.78,6.2-1.66,13.18,1.61,18.74
				c3.27,5.56,10.11,9.19,16.35,7.58c6.7-1.73,10.71-8.42,13.77-14.62c11.27-22.88,19.35-47.32,23.93-72.41
				c0.29-1.57,0.43-2.95-0.16-4.4c-9.16,3.8-18.36,14.94-25.19,22.06C379.05,492.07,371.9,500.78,365.48,509.99z"/>
			<path class="st4" d="M81.4,524.51c4.64,7.93,11.97,13.92,19.65,18.97c11.04,7.25,23.12,12.92,35.76,16.76
				c2.22,0.68,4.98,1.16,6.55-0.54c0.75-0.81,1.02-1.95,1.11-3.04c0.33-4.04-1.45-7.93-3.31-11.53
				c-7.55-14.62-17.11-28.2-28.31-40.25c-7.17-7.71-20.38-17.46-31.03-9.56C73.28,501.64,76.99,516.97,81.4,524.51z"/>
			<path class="st4" d="M450.43,498.19c5.22,6.36,11.27,12.36,18.88,15.48c7.61,3.12,17.06,2.81,23.31-2.53
				c6.04-5.17,7.91-14.02,6.41-21.82c-1.5-7.8-5.89-14.73-10.7-21.06c-14.48-19.05-33.38-34.25-53.24-47.37
				c-12.05-7.95-14.36-0.84-12.8,10.29c1.62,11.6,4.11,22.81,8.49,33.72C435.6,476.9,442.22,488.19,450.43,498.19z"/>
			<path class="st4" d="M521.67,484.79c6.42,5.33,13.65,10.36,21.95,11.22c8.3,0.86,17.7-3.9,19.34-12.07
				c1.79-8.91-5.71-16.77-12.69-22.59c-13.4-11.17-27.41-21.61-41.93-31.27c-8.02-5.33-18.46-12.62-28.49-12.9
				c-11.12-0.31-0.79,14.67,1.99,19.63C492.03,455.05,505.59,471.43,521.67,484.79z"/>
			<path class="st4" d="M404.7,645.37c4.22,10.12,11.95,20.25,22.85,21.41c3.07,0.33,6.29-0.13,8.97-1.66
				c5.43-3.09,7.71-10.09,6.84-16.28c-0.87-6.19-4.29-11.72-8.01-16.74c-8.7-11.77-19.49-21.99-31.7-30.04
				c-0.82-0.54-1.72-1.1-2.71-1.08C393.11,601.12,402.77,640.74,404.7,645.37z"/>
			<path class="st4" d="M404.42,561.22c4.28,7.39,9.5,14.64,16.97,18.78c7.47,4.14,17.68,4.37,23.92-1.46
				c5.16-4.82,6.53-12.71,5.09-19.62c-1.44-6.92-5.28-13.07-9.29-18.89c-11.19-16.2-24.3-31.01-38.14-45.01
				c-3.31-3.35-14.59-16.45-20.12-12.21c-4.23,3.24,0.39,16.96,1.16,20.97C387.87,523.8,394.16,543.52,404.42,561.22z"/>
			<path class="st4" d="M676.37,517.52c11.87,2.12,24.38,1.82,35.64-2.49c9.39-3.6,18.42-11.28,18.86-21.32
				c0.46-10.5-9.12-19.4-19.42-21.49c-10.3-2.1-20.93,1.04-30.68,4.97c-13.21,5.33-25.76,12.16-38.01,19.42
				c-2.03,1.21-4.23,2.63-4.88,4.91C635.96,508.29,670.74,516.51,676.37,517.52z"/>
		</g>
		<g>
			<g>
				<g>
					<path class="st3" d="M501.87,546.47c4.96-1.84,9.59-4.54,13.64-7.94"/>
					<path class="st3" d="M508,560.68c7.15-1.28,13.8-5.19,18.39-10.83"/>
					<path class="st3" d="M498.14,538.1c3.54-1.3,6.78-3.43,9.36-6.18"/>
				</g>
				<g>
					<path class="st3" d="M578.58,536.89c7.77-4.27,14.77-9.95,20.54-16.68"/>
					<path class="st3" d="M570.02,528.78c3.77-1.12,7.23-3.28,9.88-6.19"/>
				</g>
				<g>
					<path class="st3" d="M562.45,614.55c9.34-2.5,17.86-7.96,24.03-15.4"/>
					<path class="st3" d="M575.15,617.96c3.79-0.37,7.37-2.48,9.53-5.62"/>
				</g>
				<g>
					<path class="st3" d="M652.65,594.44c10.21-2.91,18.92-10.71,22.92-20.55"/>
					<path class="st3" d="M664.92,597.42c5.61-1.94,10.48-5.93,13.47-11.05"/>
				</g>
				<path class="st3" d="M441.81,592.76c6.28-1.42,11.95-5.4,15.43-10.82"/>
				<path class="st3" d="M714.54,530.98c6.56,3.55,12.04,9.07,15.54,15.66"/>
				<g>
					<path class="st3" d="M784.1,495.3c0.09,10.02-3.28,20.04-9.33,27.72"/>
					<path class="st3" d="M808.56,439c2.77,10.53,4.03,21.46,3.73,32.34"/>
				</g>
				<path class="st3" d="M723.47,391.64c3.87-3.48,8.5-6.11,13.48-7.65"/>
			</g>
			<g>
				<path class="st3" d="M127.93,590.17c0.23,6.12,4.91,11.81,10.87,13.22"/>
				<path class="st3" d="M191.25,643.89c6.81,6.99,16.75,10.8,26.48,10.16"/>
				<g>
					<path class="st3" d="M276.56,544.95c7.76,7.29,18.35,11.5,29,11.51"/>
					<path class="st3" d="M291.39,542.47c3.43,1.3,6.91,2.46,10.43,3.47"/>
					<path class="st3" d="M275.03,561.04c4.5,3.18,9.62,5.48,14.99,6.73"/>
				</g>
				<path class="st3" d="M190.02,546.96c2.25,4.49,6.45,7.97,11.28,9.36"/>
				<g>
					<path class="st3" d="M342.01,588.46c3.9,4.19,9.13,7.12,14.74,8.27"/>
					<path class="st3" d="M339.53,599.44c2.67,3.39,6.8,5.58,11.11,5.89"/>
					<path class="st3" d="M357.17,561.1c2.58,2.75,6.17,4.54,9.93,4.95"/>
				</g>
			</g>
		</g>
		<g>
			<path class="st3" d="M335.37,680.92c30.56-28.38,40.93-72.04,61.78-108.16"/>
			<path class="st3" d="M277.55,489.08c-18.85,27.62-39.72,53.95-63.37,77.6c-4.21,4.21-8.53,8.36-12.16,13.08
				c-4.78,6.21-8.37,13.41-14.13,18.73c-5.23,4.82-12.08,7.91-16.42,13.55"/>
			<path class="st3" d="M365.32,489.56c-9.64,33.81-37.62,58.83-55.09,89.34c-6.4,11.17-11.44,23.18-19.12,33.51
				c-4.04,5.44-8.76,10.33-13.46,15.2c-7.06,7.32-14.11,14.63-21.17,21.95"/>
			<path class="st3" d="M70.68,531.56c4.39,2.04,8.59,4.5,12.52,7.33c7.41,5.34,14.58,12.29,23.69,12.9"/>
			<g>
				<path class="st3" d="M97.48,561.04c3.6-3.5,7.54-6.65,11.75-9.38"/>
				<path class="st3" d="M134.55,529.08c-0.32,0.41-0.64,0.83-0.96,1.24c7.35-5.61,14.7-11.21,22.05-16.82"/>
			</g>
		</g>
		<g>
			<path class="st3" d="M521.58,485.96c10.78,10.61,21.57,21.23,32.35,31.84c20.27,19.95,40.57,39.93,62.35,58.23
				c5.81,4.88,11.79,9.69,18.61,13.03c5.25,2.57,10.9,4.23,16.15,6.8c9.03,4.42,16.7,11.57,21.75,20.26"/>
			<path class="st3" d="M448.75,518.28c23.45,28.36,46.9,56.72,70.34,85.08c8.18,9.9,16.41,19.84,26.15,28.22
				c11.4,9.81,24.75,17.31,39.01,22.08"/>
			<path class="st3" d="M391.53,533.09c-4.09,6.83-4.41,15.45-2.29,23.12c2.13,7.67,6.49,14.53,11.33,20.85
				c16.13,21.04,37.98,37.16,54.15,58.18c13.36,17.37,27.83,37.77,46.05,47.97"/>
			<path class="st3" d="M679.8,518.48c8.99,8.3,21.85,10.98,34.08,11.29c12.23,0.31,24.5-1.38,36.68-0.3
				c10.52,0.94,24.04,4.12,33.53-0.51"/>
		</g>
	</g>
	<g>
		<g>
			<path class="st5" d="M173.59,175.48c23.26-37.5,54.78-70.43,92.05-94.07"/>
			<path class="st5" d="M130.9,317.69c-0.03,23.85,1.78,53.59,9.78,78.39"/>
			<path class="st5" d="M705.95,253.54c7.42,28.08,10.2,53.31,7.97,80.54"/>
		</g>
		<g>
			<g>
				<path class="st6" d="M421.22,177.05c-0.48,8.79-0.29,17.61,0.56,26.37"/>
				<path class="st6" d="M449.97,204.69c1.42-7.62,4.12-16.27,7.04-24.71"/>
				<path class="st6" d="M474.35,213.53c3.1-7.8,8.08-17.85,12.41-25.04"/>
				<path class="st6" d="M499.14,223.92c5.49-7.46,10.82-15.03,16-22.7"/>
				<path class="st6" d="M521.01,241.42c5.13-6.81,12.29-15.04,18.33-21.06"/>
				<path class="st6" d="M543.69,260.96c6.51-6.81,13.02-13.62,19.53-20.42"/>
				<path class="st6" d="M385.73,181.53c3.04,8.06,5.86,16.2,8.47,24.4"/>
				<path class="st6" d="M351.73,194.77c4.09,7.5,8.35,13.79,13.2,20.03"/>
				<path class="st6" d="M326.46,211.84c5.12,5.28,11.38,11.74,16.49,17.02"/>
				<path class="st6" d="M303.37,230.68c6.7,5.56,13.18,11.39,19.41,17.48"/>
				<path class="st6" d="M280.5,252.67c5.77,5.86,12.47,10.79,19.77,14.55"/>
			</g>
			<g>
				<path class="st7" d="M562.99,281.58c0,0-24.6-5.86-51.53-32.8c-26.94-26.94-62.08-30.45-85.5-30.45
					c-23.43,0-58.56,3.51-85.5,30.45c-26.94,26.94-51.54,32.8-51.54,32.8s52.71,66.76,137.04,66.76S562.99,281.58,562.99,281.58z"/>
				<g>
					<circle class="st0" cx="420.93" cy="277.24" r="48.01"/>
					<path class="st3" d="M376.93,258.01c-2.58,5.89-4.01,12.39-4.01,19.23"/>
					<path class="st3" d="M420.93,325.25c12.57,0,24.01-4.83,32.57-12.74c9.49-8.77,15.44-21.33,15.44-35.27
						c0-9.79-2.93-18.9-7.97-26.49"/>
					<path class="st8" d="M437.82,277.24c0-9.32-7.56-16.88-16.88-16.88c-9.32,0-16.88,7.56-16.88,16.88
						c0,9.32,7.56,16.88,16.88,16.88C430.26,294.12,437.82,286.56,437.82,277.24z"/>
					<path class="st3" d="M390.93,255.99c-4.01,5.94-6.35,13.1-6.35,20.8c0,20.55,16.66,37.2,37.2,37.2"/>
				</g>
				<path class="st9" d="M336.74,251.67c2.5-1.9,4.8-4.03,7.13-6.14c26.44-23.98,59.64-27.21,82.09-27.21
					c22.73,0,56.49,3.31,83.09,28.12c1.75,1.63,3.51,3.25,5.37,4.76c8.62,6.97,34.06,26.81,48.58,30.37l-10.54,11.4
					c0,0-55.44-54.45-126.49-54.45c-71.06,0-126.49,54.45-126.49,54.45l-10.54-11.4C288.92,281.58,313.44,269.41,336.74,251.67z"/>
				<path class="st1" d="M514.41,251.21c8.62,6.97,34.06,26.81,48.58,30.37l-10.54,11.4c0,0-33.55-32.95-81.91-47.59"/>
				<path class="st1" d="M343.86,245.54c26.44-23.98,59.64-27.21,82.09-27.21"/>
				<path class="st1" d="M356.68,254.84c-34.71,16.04-57.21,38.14-57.21,38.14l-10.54-11.4"/>
			</g>
		</g>
		<g>
			<g>
				<polygon class="st10" points="348.97,82 353.44,68.59 359.03,82 373.19,77.16 363.87,89.08 379.89,90.94 364.43,98.77 
					370.21,110.69 356.42,102.87 355.68,116.65 348.97,104.36 335.93,111.43 340.77,98.02 329.22,92.62 341.89,88.34 334.81,76.41 
									"/>
				<polygon class="st10" points="291.01,359.8 295.49,346.39 301.07,359.8 315.23,354.95 305.92,366.88 321.94,368.74 
					306.48,376.56 312.25,388.49 298.47,380.66 297.72,394.45 291.01,382.15 277.97,389.23 282.82,375.82 271.27,370.42 
					283.94,366.13 276.86,354.21 				"/>
				<path class="st10" d="M643.53,290.75l-6.62,14.57l-8.39-5.3l3.97,10.59l-13.24-2.21l6.62,8.39l-10.15,8.39h13.9l-2.87,12.8
					l11.03-10.15l9.27,10.15v-14.57l14.12-0.88l-14.12-8.17c0,0,12.8-9.05,11.03-9.05c-1.77,0-14.12,1.77-14.12,1.77L643.53,290.75z
					"/>
				<polygon class="st10" points="414.28,115.43 422.84,103.88 422.84,115.43 436.63,109.65 429.92,119.9 439.98,122.51 
					427.13,125.49 434.02,135.92 420.98,131.82 419.86,144.12 412.04,132.2 402.35,138.9 406.08,128.84 393.41,127.35 
					408.31,120.65 404.22,109.1 				"/>
				<polygon class="st10" points="625.07,192.03 616.13,181.97 617.99,195.76 607.19,199.11 616.13,202.84 610.17,212.52 
					620.6,208.05 629.17,216.99 629.17,206.19 639.98,211.03 635.88,202.09 644.82,195.01 631.03,196.13 634.76,185.7 				"/>
				<polygon class="st10" points="536.87,373.6 527.92,363.54 529.79,377.32 518.98,380.68 527.92,384.4 521.96,394.09 
					532.39,389.62 540.96,398.56 540.96,387.76 551.77,392.6 547.67,383.66 556.61,376.58 542.83,377.7 546.55,367.26 				"/>
				<polygon class="st10" points="616.99,384.74 615.12,374.68 609.91,384.74 601.34,379.71 605.44,388.1 596.87,394.8 
					606.93,394.8 606.93,404.49 613.63,396.29 623.69,401.14 619.97,389.59 628.16,385.12 				"/>
				<polygon class="st10" points="402.55,386.79 400.68,376.73 395.47,386.79 386.9,381.76 391,390.15 382.43,396.85 392.49,396.85 
					392.49,406.54 399.19,398.34 409.25,403.19 405.53,391.64 413.72,387.16 				"/>
				<polygon class="st10" points="479.78,60.02 477.91,49.97 472.7,60.02 464.13,55 468.23,63.38 459.66,70.08 469.72,70.08 
					469.72,79.77 476.42,71.57 486.48,76.42 482.76,64.87 490.95,60.4 				"/>
				<polygon class="st10" points="226.65,196.38 224.79,186.32 219.57,196.38 211,191.35 215.1,199.73 206.53,206.43 216.59,206.43 
					216.59,216.12 223.3,207.93 233.36,212.77 229.63,201.22 237.83,196.75 				"/>
				<polygon class="st10" points="201.5,413.89 199.64,403.83 194.42,413.89 185.85,408.86 189.95,417.25 181.38,423.95 
					191.44,423.95 191.44,433.64 198.15,425.44 208.21,430.29 204.48,418.74 212.68,414.27 				"/>
				<polygon class="st10" points="561.61,110.99 556.02,99.82 549.32,112.86 537.77,109.13 543.73,119.94 531.06,126.27 
					544.1,127.76 541.12,141.92 550.81,135.21 558.26,145.64 561.61,133.72 572.79,141.17 569.43,128.88 580.24,122.73 
					567.2,119.94 574.28,107.64 				"/>
				<polygon class="st10" points="216.76,260.35 211.17,249.17 204.47,262.21 192.92,258.49 198.88,269.29 186.21,275.63 
					199.25,277.12 196.27,291.28 205.96,284.57 213.41,295 216.76,283.08 227.94,290.53 224.59,278.24 235.39,272.09 222.35,269.29 
					229.43,257 				"/>
			</g>
			<g>
				<g>
					<g>
						<path class="st10" d="M286.77,144.3c1.61,0,1.61-2.5,0-2.5C285.16,141.8,285.16,144.3,286.77,144.3L286.77,144.3z"/>
					</g>
				</g>
				<g>
					<g>
						<path class="st10" d="M486.76,121.71c1.61,0,1.61-2.5,0-2.5C485.15,119.21,485.15,121.71,486.76,121.71L486.76,121.71z"/>
					</g>
				</g>
				<g>
					<g>
						<path class="st10" d="M667.2,412.01c1.61,0,1.61-2.5,0-2.5C665.59,409.51,665.59,412.01,667.2,412.01L667.2,412.01z"/>
					</g>
				</g>
				<g>
					<g>
						<path class="st10" d="M220.55,378.19c1.61,0,1.61-2.5,0-2.5C218.94,375.69,218.93,378.19,220.55,378.19L220.55,378.19z"/>
					</g>
				</g>
				<g>
					<g>
						<path class="st10" d="M319.18,143.67c0.8,0,0.81-1.25,0-1.25C318.37,142.42,318.37,143.67,319.18,143.67L319.18,143.67z"/>
					</g>
				</g>
				<g>
					<g>
						<path class="st10" d="M290.38,187.24c0.8,0,0.81-1.25,0-1.25C289.58,185.99,289.58,187.24,290.38,187.24L290.38,187.24z"/>
					</g>
				</g>
				<g>
					<g>
						<path class="st10" d="M257.18,174.67c0.8,0,0.81-1.25,0-1.25C256.38,173.42,256.37,174.67,257.18,174.67L257.18,174.67z"/>
					</g>
				</g>
				<g>
					<g>
						<path class="st10" d="M507.55,154.86c0.8,0,0.81-1.25,0-1.25C506.75,153.61,506.75,154.86,507.55,154.86L507.55,154.86z"/>
					</g>
				</g>
				<g>
					<g>
						<path class="st10" d="M535.69,168.56c0.8,0,0.81-1.25,0-1.25C534.89,167.31,534.89,168.56,535.69,168.56L535.69,168.56z"/>
					</g>
				</g>
				<g>
					<g>
						<path class="st10" d="M599.57,142.26c0.8,0,0.81-1.25,0-1.25C598.76,141.01,598.76,142.26,599.57,142.26L599.57,142.26z"/>
					</g>
				</g>
				<g>
					<g>
						<path class="st10" d="M586.89,174.67c0.8,0,0.81-1.25,0-1.25C586.08,173.42,586.08,174.67,586.89,174.67L586.89,174.67z"/>
					</g>
				</g>
				<g>
					<g>
						<path class="st10" d="M669.63,224.55c0.8,0,0.81-1.25,0-1.25C668.83,223.3,668.83,224.55,669.63,224.55L669.63,224.55z"/>
					</g>
				</g>
				<g>
					<g>
						<path class="st10" d="M634.67,433.97c0.8,0,0.81-1.25,0-1.25C633.86,432.72,633.86,433.97,634.67,433.97L634.67,433.97z"/>
					</g>
				</g>
				<g>
					<g>
						<path class="st10" d="M688.33,405.75c0.8,0,0.81-1.25,0-1.25C687.53,404.5,687.53,405.75,688.33,405.75L688.33,405.75z"/>
					</g>
				</g>
				<g>
					<g>
						<path class="st10" d="M660.15,373.34c0.8,0,0.81-1.25,0-1.25C659.35,372.09,659.35,373.34,660.15,373.34L660.15,373.34z"/>
					</g>
				</g>
				<g>
					<g>
						<path class="st10" d="M327.61,417.8c0.8,0,0.81-1.25,0-1.25C326.8,416.55,326.8,417.8,327.61,417.8L327.61,417.8z"/>
					</g>
				</g>
				<g>
					<g>
						<path class="st10" d="M349.38,399.19c0.8,0,0.81-1.25,0-1.25C348.58,397.94,348.58,399.19,349.38,399.19L349.38,399.19z"/>
					</g>
				</g>
				<g>
					<g>
						<path class="st10" d="M475.58,364.89c0.8,0,0.81-1.25,0-1.25C474.77,363.64,474.77,364.89,475.58,364.89L475.58,364.89z"/>
					</g>
				</g>
				<g>
					<g>
						<path class="st10" d="M161.37,240.89c0.8,0,0.81-1.25,0-1.25C160.56,239.64,160.56,240.89,161.37,240.89L161.37,240.89z"/>
					</g>
				</g>
				<g>
					<g>
						<path class="st10" d="M179.68,231.03c0.8,0,0.81-1.25,0-1.25C178.88,229.78,178.88,231.03,179.68,231.03L179.68,231.03z"/>
					</g>
				</g>
				<g>
					<g>
						<path class="st10" d="M241.68,362.07c0.8,0,0.81-1.25,0-1.25C240.88,360.82,240.87,362.07,241.68,362.07L241.68,362.07z"/>
					</g>
				</g>
				<g>
					<g>
						<path class="st10" d="M181.09,383.2c0.8,0,0.81-1.25,0-1.25C180.29,381.95,180.29,383.2,181.09,383.2L181.09,383.2z"/>
					</g>
				</g>
				<g>
					<g>
						<path class="st10" d="M233.23,436.75c0.8,0,0.81-1.25,0-1.25C232.42,435.5,232.42,436.75,233.23,436.75L233.23,436.75z"/>
					</g>
				</g>
				<g>
					<g>
						<path class="st10" d="M178.28,323.24c1.61,0,1.61-2.5,0-2.5C176.67,320.74,176.66,323.24,178.28,323.24L178.28,323.24z"/>
					</g>
				</g>
				<g>
					<g>
						<path class="st10" d="M395.26,62.58c1.61,0,1.61-2.5,0-2.5C393.65,60.08,393.65,62.58,395.26,62.58L395.26,62.58z"/>
					</g>
				</g>
				<g>
					<g>
						<path class="st10" d="M606.61,265.47c1.61,0,1.61-2.5,0-2.5C605,262.97,605,265.47,606.61,265.47L606.61,265.47z"/>
					</g>
				</g>
				<g>
					<g>
						<path class="st10" d="M568.57,345.78c1.61,0,1.61-2.5,0-2.5C566.96,343.28,566.96,345.78,568.57,345.78L568.57,345.78z"/>
					</g>
				</g>
				<g>
					<g>
						<path class="st10" d="M644.66,147.9c0.8,0,0.81-1.25,0-1.25C643.85,146.65,643.85,147.9,644.66,147.9L644.66,147.9z"/>
					</g>
				</g>
				<g>
					<g>
						<path class="st10" d="M567.16,409.97c0.8,0,0.81-1.25,0-1.25C566.36,408.72,566.35,409.97,567.16,409.97L567.16,409.97z"/>
					</g>
				</g>
				<g>
					<g>
						<path class="st10" d="M457.26,386.02c0.8,0,0.81-1.25,0-1.25C456.45,384.77,456.45,386.02,457.26,386.02L457.26,386.02z"/>
					</g>
				</g>
				<g>
					<g>
						<path class="st10" d="M258.59,312.75c0.8,0,0.81-1.25,0-1.25C257.78,311.5,257.78,312.75,258.59,312.75L258.59,312.75z"/>
					</g>
				</g>
				<g>
					<g>
						<path class="st10" d="M234.64,326.84c0.8,0,0.81-1.25,0-1.25C233.83,325.59,233.83,326.84,234.64,326.84L234.64,326.84z"/>
					</g>
				</g>
				<g>
					<g>
						<path class="st10" d="M257.18,135.22c0.8,0,0.81-1.25,0-1.25C256.38,133.97,256.37,135.22,257.18,135.22L257.18,135.22z"/>
					</g>
				</g>
				<g>
					<g>
						<path class="st10" d="M364.26,149.31c0.8,0,0.81-1.25,0-1.25C363.46,148.06,363.46,149.31,364.26,149.31L364.26,149.31z"/>
					</g>
				</g>
				<g>
					<g>
						<path class="st10" d="M258.59,432.52c0.8,0,0.81-1.25,0-1.25C257.78,431.27,257.78,432.52,258.59,432.52L258.59,432.52z"/>
					</g>
				</g>
				<g>
					<g>
						<path class="st10" d="M181.09,460.7c0.8,0,0.81-1.25,0-1.25C180.29,459.45,180.29,460.7,181.09,460.7L181.09,460.7z"/>
					</g>
				</g>
				<g>
					<g>
						<path class="st10" d="M686.93,364.89c0.8,0,0.81-1.25,0-1.25C686.12,363.64,686.12,364.89,686.93,364.89L686.93,364.89z"/>
					</g>
				</g>
				<g>
					<g>
						<path class="st10" d="M644.66,248.78c0.8,0,0.81-1.25,0-1.25C643.85,247.53,643.85,248.78,644.66,248.78L644.66,248.78z"/>
					</g>
				</g>
				<g>
					<g>
						<path class="st10" d="M402.31,436.75c0.8,0,0.81-1.25,0-1.25C401.5,435.5,401.5,436.75,402.31,436.75L402.31,436.75z"/>
					</g>
				</g>
				<g>
					<g>
						<path class="st10" d="M584.07,319.8c0.8,0,0.81-1.25,0-1.25C583.26,318.55,583.26,319.8,584.07,319.8L584.07,319.8z"/>
					</g>
				</g>
				<g>
					<g>
						<path class="st10" d="M529.12,74.63c0.8,0,0.81-1.25,0-1.25C528.31,73.38,528.31,74.63,529.12,74.63L529.12,74.63z"/>
					</g>
				</g>
				<g>
					<g>
						<path class="st10" d="M307.9,87.31c0.8,0,0.81-1.25,0-1.25C307.1,86.06,307.1,87.31,307.9,87.31L307.9,87.31z"/>
					</g>
				</g>
				<g>
					<g>
						<path class="st10" d="M343.13,354.55c0.8,0,0.81-1.25,0-1.25C342.32,353.3,342.32,354.55,343.13,354.55L343.13,354.55z"/>
					</g>
				</g>
				<g>
					<g>
						<path class="st10" d="M664.11,267.84c0.8,0,0.81-1.25,0-1.25C663.31,266.59,663.31,267.84,664.11,267.84L664.11,267.84z"/>
					</g>
				</g>
			</g>
		</g>
	</g>
</g>
</svg>
